<svg width="50" height="50" viewBox="0 0 50 50" fill="none" xmlns="http://www.w3.org/2000/svg">
<path d="M42.1875 20.8333C42.1875 20.4914 42.1202 20.1527 41.9893 19.8368C41.8584 19.5208 41.6666 19.2337 41.4248 18.9919C41.183 18.7501 40.8959 18.5583 40.5799 18.4274C40.264 18.2965 39.9253 18.2292 39.5833 18.2292C39.2414 18.2292 38.9027 18.2965 38.5868 18.4274C38.2708 18.5583 37.9837 18.7501 37.7419 18.9919C37.5001 19.2337 37.3083 19.5208 37.1774 19.8368C37.0465 20.1527 36.9792 20.4914 36.9792 20.8333H42.1875ZM13.0209 20.8333C13.0209 20.1427 12.7465 19.4803 12.2581 18.9919C11.7697 18.5035 11.1074 18.2292 10.4167 18.2292C9.72602 18.2292 9.06364 18.5035 8.57526 18.9919C8.08688 19.4803 7.81252 20.1427 7.81252 20.8333H13.0209ZM41.9083 26.8417C42.3968 27.3301 43.0593 27.6045 43.75 27.6045C44.4408 27.6045 45.1032 27.3301 45.5917 26.8417C46.0801 26.3532 46.3545 25.6908 46.3545 25C46.3545 24.3092 46.0801 23.6468 45.5917 23.1583L41.9083 26.8417ZM25 6.25001L26.8417 4.40834C26.5999 4.16645 26.3127 3.97457 25.9967 3.84365C25.6808 3.71274 25.3421 3.64536 25 3.64536C24.658 3.64536 24.3193 3.71274 24.0033 3.84365C23.6873 3.97457 23.4002 4.16645 23.1584 4.40834L25 6.25001ZM4.40835 23.1583C3.91991 23.6468 3.64551 24.3092 3.64551 25C3.64551 25.6908 3.91991 26.3532 4.40835 26.8417C4.89679 27.3301 5.55926 27.6045 6.25002 27.6045C6.94078 27.6045 7.60324 27.3301 8.09168 26.8417L4.40835 23.1583ZM14.5834 46.3542H35.4167V41.1458H14.5834V46.3542ZM42.1875 39.5833V20.8333H36.9792V39.5833H42.1875ZM13.0209 39.5833V20.8333H7.81252V39.5833H13.0209ZM45.5917 23.1583L26.8417 4.40834L23.1584 8.09167L41.9083 26.8417L45.5917 23.1583ZM23.1584 4.40834L4.40835 23.1583L8.09168 26.8417L26.8417 8.09167L23.1584 4.40834ZM35.4167 46.3542C37.2124 46.3542 38.9346 45.6408 40.2044 44.371C41.4742 43.1013 42.1875 41.3791 42.1875 39.5833H36.9792C36.9792 39.9977 36.8146 40.3952 36.5215 40.6882C36.2285 40.9812 35.8311 41.1458 35.4167 41.1458V46.3542ZM14.5834 41.1458C14.169 41.1458 13.7715 40.9812 13.4785 40.6882C13.1855 40.3952 13.0209 39.9977 13.0209 39.5833H7.81252C7.81252 41.3791 8.52587 43.1013 9.79565 44.371C11.0654 45.6408 12.7876 46.3542 14.5834 46.3542V41.1458Z" fill="#52489C"/>
</svg>
