<svg width="50" height="50" viewBox="0 0 50 50" fill="none" xmlns="http://www.w3.org/2000/svg">
<g clip-path="url(#clip0_20_204)">
<path d="M33.3333 6.25C34.3845 6.24967 35.397 6.64668 36.1678 7.36145C36.9386 8.07622 37.4107 9.05593 37.4896 10.1042L37.5 10.4167V20.8333H40.625C41.4018 20.8334 42.1508 21.1227 42.7259 21.645C43.3009 22.1673 43.6608 22.8851 43.7354 23.6583L43.75 23.9583V39.5833C43.7501 41.1775 43.141 42.7115 42.0473 43.8714C40.9537 45.0313 39.4581 45.7294 37.8667 45.8229L37.5 45.8333H10.4167C9.36547 45.8337 8.35299 45.4367 7.58219 44.7219C6.8114 44.0071 6.33926 43.0274 6.26042 41.9792L6.25 41.6667V10.4167C6.24967 9.36547 6.64668 8.35299 7.36145 7.58219C8.07622 6.8114 9.05593 6.33926 10.1042 6.26042L10.4167 6.25H33.3333ZM39.5833 25H37.5V41.6667C38.0525 41.6667 38.5824 41.4472 38.9731 41.0565C39.3638 40.6658 39.5833 40.1359 39.5833 39.5833V25ZM22.9167 27.0833H16.6667C16.1357 27.0839 15.6249 27.2872 15.2388 27.6518C14.8527 28.0163 14.6203 28.5145 14.5892 29.0446C14.5581 29.5747 14.7306 30.0966 15.0714 30.5038C15.4122 30.911 15.8956 31.1727 16.4229 31.2354L16.6667 31.25H22.9167C23.4477 31.2494 23.9584 31.0461 24.3445 30.6816C24.7306 30.317 24.963 29.8188 24.9941 29.2888C25.0252 28.7587 24.8528 28.2367 24.5119 27.8295C24.1711 27.4223 23.6877 27.1606 23.1604 27.0979L22.9167 27.0833ZM27.0833 16.6667H16.6667C16.1141 16.6667 15.5842 16.8862 15.1935 17.2769C14.8028 17.6676 14.5833 18.1975 14.5833 18.75C14.5833 19.3025 14.8028 19.8324 15.1935 20.2231C15.5842 20.6138 16.1141 20.8333 16.6667 20.8333H27.0833C27.6359 20.8333 28.1658 20.6138 28.5565 20.2231C28.9472 19.8324 29.1667 19.3025 29.1667 18.75C29.1667 18.1975 28.9472 17.6676 28.5565 17.2769C28.1658 16.8862 27.6359 16.6667 27.0833 16.6667Z" fill="#52489C"/>
</g>
<defs>
<clipPath id="clip0_20_204">
<rect width="50" height="50" fill="white"/>
</clipPath>
</defs>
</svg>
